<?xml version="1.0" encoding="utf-8"?>
<svg viewBox="54.874 1149.398 2494.488 255.118" width="2494.488" height="255.118" xmlns="http://www.w3.org/2000/svg">
  <g enable-background="new" transform="matrix(1, 0, 0, 1, 19.663445, 15.536849)">
    <clipPath id="cp0">
      <path transform="matrix(1,0,0,-1,-21.48238,2267.72)" d="M 0 0 L 2834.65 0 L 2834.65 2267.72 L 0 2267.72 Z "/>
    </clipPath>
    <g clip-path="url(#cp0)">
      <path transform="matrix(1,0,0,-1,-21.48238,2267.72)" d="M 2551.181 907.0865 L 2551.181 1077.166 L 2522.834 1077.166 L 2522.834 1105.512 L 878.7402 1105.512 L 878.7402 1133.859 L 737.0082 1133.859 L 737.0082 1105.512 L 680.3152 1105.512 L 680.3152 1048.819 L 651.9682 1048.819 L 651.9682 1105.512 L 595.2752 1105.512 L 595.2752 1133.859 L 453.5432 1133.859 L 453.5432 1105.512 L 56.6932 1105.512 L 56.6932 907.0865 L 453.5432 907.0865 L 538.5822 907.0865 L 651.9682 907.0865 L 651.9682 963.7795 L 680.3152 963.7795 L 680.3152 907.0865 L 1615.748 907.0865 L 1644.094 907.0865 L 1644.094 878.7405 L 1785.827 878.7405 L 1785.827 907.0865 Z " fill="#231F20"/>
      <path transform="matrix(1,0,0,-1,2529.6986,1360.6336)" stroke-width="1" stroke-linecap="butt" stroke-miterlimit="4" stroke-linejoin="miter" fill="none" stroke="#000" d="M 0 0 L 0 170.079 L -28.347 170.079 L -28.347 198.425 L -1672.441 198.425 L -1672.441 226.772 L -1814.173 226.772 L -1814.173 198.425 L -1870.866 198.425 L -1870.866 141.732 L -1899.213 141.732 L -1899.213 198.425 L -1955.906 198.425 L -1955.906 226.772 L -2097.638 226.772 L -2097.638 198.425 L -2494.488 198.425 L -2494.488 0 L -2097.638 0 L -2012.599 0 L -1899.213 0 L -1899.213 56.693 L -1870.866 56.693 L -1870.866 0 L -935.433 0 L -907.087 0 L -907.087 -28.346 L -765.354 -28.346 L -765.354 0 L 0 0 Z "/>
      <path transform="matrix(1,0,0,-1,-21.48238,2267.72)" d="M 2494.488 1020.472 L 2522.834 1020.472 L 2522.834 1048.818 L 2494.488 1048.818 L 2494.488 1077.165 L 2409.449 1077.165 L 2409.449 935.4333 L 2522.834 935.4333 L 2522.834 963.7793 L 2494.488 963.7793 Z M 2352.756 935.4333 L 2381.102 935.4333 L 2381.102 1077.165 L 2239.37 1077.165 L 2239.37 935.4333 L 2324.409 935.4333 L 2324.409 1048.818 L 2352.756 1048.818 Z M 2211.024 935.4333 L 2211.024 963.7793 L 2154.331 963.7793 L 2154.331 992.1263 L 2211.024 992.1263 L 2211.024 1077.165 L 2069.291 1077.165 L 2069.291 935.4333 Z M 2154.331 1048.818 L 2182.677 1048.818 L 2182.677 1020.472 L 2154.331 1020.472 Z M 2012.598 935.4333 L 2040.945 935.4333 L 2040.945 1077.165 L 1842.519 1077.165 L 1842.519 935.4333 L 1927.559 935.4333 L 1927.559 1048.818 L 1955.905 1048.818 L 1955.905 935.4333 L 1984.252 935.4333 L 1984.252 1048.818 L 2012.598 1048.818 Z M 1814.173 935.4333 L 1814.173 1077.165 L 1672.441 1077.165 L 1672.441 907.0863 L 1757.48 907.0863 L 1757.48 935.4333 Z M 1785.827 963.7793 L 1757.481 963.7793 L 1757.481 1048.818 L 1785.827 1048.818 Z M 1644.094 935.4333 L 1644.094 1077.165 L 1502.362 1077.165 L 1502.362 992.1263 L 1530.708 992.1263 L 1530.708 935.4333 Z M 1615.748 963.7793 L 1587.401 963.7793 L 1587.401 1048.818 L 1615.748 1048.818 Z M 1502.362 963.7793 L 1474.016 963.7793 L 1474.016 1077.165 L 1388.976 1077.165 L 1388.976 935.4333 L 1502.362 935.4333 Z M 1360.63 935.4333 L 1360.63 963.7793 L 1303.937 963.7793 L 1303.937 992.1263 L 1360.63 992.1263 L 1360.63 1077.165 L 1218.898 1077.165 L 1218.898 935.4333 Z M 1303.937 1048.818 L 1332.283 1048.818 L 1332.283 1020.472 L 1303.937 1020.472 Z M 1190.551 935.4333 L 1190.551 1077.165 L 1162.205 1077.165 L 1162.205 963.7793 L 1133.858 963.7793 L 1133.858 1077.165 L 1048.819 1077.165 L 1048.819 963.7793 L 1077.165 963.7793 L 1077.165 935.4333 Z M 1020.472 935.4333 L 1020.472 963.7793 L 963.779 963.7793 L 963.779 992.1263 L 1020.472 992.1263 L 1020.472 1077.165 L 878.74 1077.165 L 878.74 935.4333 Z M 963.779 1048.818 L 992.125 1048.818 L 992.125 1020.472 L 963.779 1020.472 Z M 850.394 935.4333 L 850.394 1105.511 L 765.354 1105.511 L 765.354 1077.165 L 708.661 1077.165 L 708.661 963.7793 L 708.661 935.4333 Z M 765.354 963.7793 L 737.008 963.7793 L 737.008 1048.818 L 765.354 1048.818 Z M 651.968 992.1263 L 680.314 992.1263 L 680.314 1020.472 L 651.968 1020.472 Z M 623.622 935.4333 L 623.622 1077.165 L 566.929 1077.165 L 566.929 1105.511 L 481.89 1105.511 L 481.89 935.4333 Z M 595.275 963.7793 L 566.929 963.7793 L 566.929 1048.818 L 595.275 1048.818 Z M 453.543 935.4333 L 453.543 963.7793 L 396.85 963.7793 L 396.85 992.1263 L 453.543 992.1263 L 453.543 1077.165 L 311.811 1077.165 L 311.811 935.4333 Z M 396.85 1048.818 L 425.197 1048.818 L 425.197 1020.472 L 396.85 1020.472 Z M 283.465 935.4333 L 283.465 1077.165 L 255.118 1077.165 L 255.118 963.7793 L 226.772 963.7793 L 226.772 1077.165 L 198.425 1077.165 L 198.425 963.7793 L 170.079 963.7793 L 170.079 1077.165 L 141.732 1077.165 L 85.039 1077.165 L 85.039 935.4333 Z " fill="#ffffff"/>
    </g>
  </g>
</svg>